<svg width="29" height="42" viewBox="0 0 29 42" fill="none" xmlns="http://www.w3.org/2000/svg">
<path d="M19.2149 30.5371H9.95703V34.5582C9.95703 37.0831 12.0143 39.2339 14.6327 39.2339C17.1576 39.2339 19.3084 37.1766 19.3084 34.5582V30.5371H19.2149Z" stroke="#023047" stroke-width="2" stroke-miterlimit="10" stroke-linecap="round" stroke-linejoin="round"/>
<path d="M20.4356 27.4507H8.83984V29.2274C8.83984 29.9756 9.40093 30.5366 10.149 30.5366H19.2199C19.968 30.5366 20.5291 29.9756 20.5291 29.2274V27.4507H20.4356Z" stroke="#023047" stroke-width="2" stroke-miterlimit="10" stroke-linecap="round" stroke-linejoin="round"/>
<path d="M8.83705 27.4508C8.83705 27.4508 8.463 26.7027 7.8084 26.2352C5.84461 24.7389 1.54297 21.2789 1.54297 14.7329C1.54297 7.43886 7.52786 1.641 14.5414 1.73451C21.5549 1.641 27.6333 7.53237 27.5398 14.7329C27.5398 21.1854 23.2382 24.7389 21.2744 26.2352C20.7133 26.7027 20.2457 27.4508 20.2457 27.4508H8.83705Z" stroke="#023047" stroke-width="2" stroke-miterlimit="10" stroke-linecap="round" stroke-linejoin="round"/>
<path d="M17.2549 8.74801L12.7662 15.2005L12.2051 13.9848C12.9533 13.8913 13.7949 13.8913 14.543 13.7978C15.2911 13.7978 16.1327 13.7978 16.8808 13.7978H16.9744C17.4419 13.7978 17.816 14.2653 17.816 14.7329C17.816 14.9199 17.7225 15.1069 17.6289 15.2005L12.8597 21.2789C12.6727 21.4659 12.3922 21.5594 12.1116 21.3724C11.9246 21.1854 11.8311 20.9048 12.0181 20.7178L16.1327 14.1718L16.8808 15.5745C16.1327 15.668 15.2911 15.5745 14.543 15.5745C13.7949 15.5745 12.9533 15.481 12.2051 15.3875H12.1116C11.7376 15.294 11.457 14.9199 11.457 14.5459C11.457 14.4524 11.5505 14.2653 11.6441 14.1718L16.6003 8.0934C16.7873 7.90637 17.0679 7.9064 17.2549 7.99991C17.3484 8.28045 17.3484 8.46747 17.2549 8.74801Z" fill="#023047"/>
<path d="M19.2149 31.3779L9.95703 34.9314" stroke="#023047" stroke-width="2" stroke-miterlimit="10" stroke-linecap="round" stroke-linejoin="round"/>
<path d="M11.1719 37.7373L19.2141 34.6514" stroke="#023047" stroke-width="2" stroke-miterlimit="10" stroke-linecap="round" stroke-linejoin="round"/>
<path d="M16.4129 39.7017C16.4129 40.6369 15.6648 41.4785 14.6361 41.4785C13.6075 41.4785 12.8594 40.6369 12.8594 39.7017C12.8594 39.4212 12.9529 39.1406 13.0464 38.9536C13.514 39.1406 14.0751 39.2342 14.6361 39.2342C15.1972 39.2342 15.7583 39.1406 16.2259 38.9536C16.3194 39.1406 16.4129 39.4212 16.4129 39.7017Z" fill="#023047"/>
</svg>
