<svg width="33" height="24" viewBox="0 0 33 24" fill="none" xmlns="http://www.w3.org/2000/svg">
<path d="M28.7419 16.9673H25.4926C23.9057 16.9673 22.6211 18.2519 22.6211 19.8388V22.937H31.5379V19.8388C31.5379 18.2519 30.3288 16.9673 28.7419 16.9673Z" stroke="#023047" stroke-width="2" stroke-miterlimit="10" stroke-linecap="round" stroke-linejoin="round"/>
<path d="M27.1529 13.9444C28.864 13.9444 30.2511 12.5573 30.2511 10.8462C30.2511 9.13516 28.864 7.74805 27.1529 7.74805C25.4418 7.74805 24.0547 9.13516 24.0547 10.8462C24.0547 12.5573 25.4418 13.9444 27.1529 13.9444Z" stroke="#023047" stroke-width="2" stroke-miterlimit="10" stroke-linecap="round" stroke-linejoin="round"/>
<path d="M7.58433 16.9673H4.41056C2.82368 16.9673 1.53906 18.2519 1.53906 19.8388V22.937H10.4558V19.8388C10.4558 18.2519 9.17121 16.9673 7.58433 16.9673Z" stroke="#023047" stroke-width="2" stroke-miterlimit="10" stroke-linecap="round" stroke-linejoin="round"/>
<path d="M6.00054 13.9444C7.71163 13.9444 9.09874 12.5573 9.09874 10.8462C9.09874 9.13516 7.71163 7.74805 6.00054 7.74805C4.28945 7.74805 2.90234 9.13516 2.90234 10.8462C2.90234 12.5573 4.28945 13.9444 6.00054 13.9444Z" stroke="#023047" stroke-width="2" stroke-miterlimit="10" stroke-linecap="round" stroke-linejoin="round"/>
<path d="M18.1599 10.2417H14.9106C13.3237 10.2417 12.0391 11.5263 12.0391 13.1132V16.2114H20.9558V13.1132C21.0314 11.5263 19.7468 10.2417 18.1599 10.2417Z" stroke="#023047" stroke-width="2" stroke-miterlimit="10" stroke-linecap="round" stroke-linejoin="round"/>
<path d="M16.5709 7.21886C18.2819 7.21886 19.6691 5.83175 19.6691 4.12066C19.6691 2.40957 18.2819 1.02246 16.5709 1.02246C14.8598 1.02246 13.4727 2.40957 13.4727 4.12066C13.4727 5.83175 14.8598 7.21886 16.5709 7.21886Z" stroke="#023047" stroke-width="2" stroke-miterlimit="10" stroke-linecap="round" stroke-linejoin="round"/>
</svg>
