<svg width="41" height="40" viewBox="0 0 41 40" fill="none" xmlns="http://www.w3.org/2000/svg">
<path d="M20.8199 30.4592C22.3298 30.4592 23.5539 26.5274 23.5539 21.6774C23.5539 16.8273 22.3298 12.8955 20.8199 12.8955C19.31 12.8955 18.0859 16.8273 18.0859 21.6774C18.0859 26.5274 19.31 30.4592 20.8199 30.4592Z" stroke="#023047" stroke-width="2" stroke-miterlimit="10" stroke-linecap="round" stroke-linejoin="round"/>
<path d="M22.1841 24.0466C26.3727 21.6017 29.1511 18.5626 28.39 17.2587C27.6288 15.9547 23.6163 16.8796 19.4278 19.3245C15.2392 21.7695 12.4608 24.8085 13.2219 26.1125C13.9831 27.4165 17.9956 26.4916 22.1841 24.0466Z" stroke="#023047" stroke-width="2" stroke-miterlimit="10" stroke-linecap="round" stroke-linejoin="round"/>
<path d="M28.3822 26.1471C29.1433 24.8431 26.3649 21.804 22.1763 19.3591C17.9878 16.9142 13.9753 15.9893 13.2141 17.2932C12.453 18.5972 15.2314 21.6363 19.4199 24.0812C23.6085 26.5262 27.621 27.4511 28.3822 26.1471Z" stroke="#023047" stroke-width="2" stroke-miterlimit="10" stroke-linecap="round" stroke-linejoin="round"/>
<path d="M20.8151 22.3407C21.1812 22.3407 21.4779 22.044 21.4779 21.6779C21.4779 21.3119 21.1812 21.0151 20.8151 21.0151C20.4491 21.0151 20.1523 21.3119 20.1523 21.6779C20.1523 22.044 20.4491 22.3407 20.8151 22.3407Z" fill="#023047"/>
<path d="M26.7848 38.082V33.111H29.2703C30.1817 33.111 30.9274 32.3654 30.9274 31.454V28.6371H34.7385L32.253 21.1806C32.253 21.1806 32.5015 17.1209 29.7675 13.8069C27.0334 10.4929 21.6481 8.09022 16.18 10.3272C13.7773 11.3214 8.64062 14.9668 8.64062 21.0977C8.64062 25.6545 10.4633 27.9743 11.9546 29.8799C14.8544 33.4424 15.1858 38.082 15.1858 38.082" stroke="#023047" stroke-width="2" stroke-miterlimit="10" stroke-linecap="round" stroke-linejoin="round"/>
<path d="M19.9141 6.76498V1.37988" stroke="#023047" stroke-width="2" stroke-miterlimit="10" stroke-linecap="round" stroke-linejoin="round"/>
<path d="M21.7367 3.20254L19.9141 1.37988" stroke="#023047" stroke-width="2" stroke-miterlimit="10" stroke-linecap="round" stroke-linejoin="round"/>
<path d="M18.1719 3.20254L19.9117 1.37988" stroke="#023047" stroke-width="2" stroke-miterlimit="10" stroke-linecap="round" stroke-linejoin="round"/>
<path d="M30.7656 10.4098L34.4938 6.68164" stroke="#023047" stroke-width="2" stroke-miterlimit="10" stroke-linecap="round" stroke-linejoin="round"/>
<path d="M34.4922 9.16707V6.68164" stroke="#023047" stroke-width="2" stroke-miterlimit="10" stroke-linecap="round" stroke-linejoin="round"/>
<path d="M32.0078 6.68164H34.4932" stroke="#023047" stroke-width="2" stroke-miterlimit="10" stroke-linecap="round" stroke-linejoin="round"/>
<path d="M34.6641 20.6841H39.9663" stroke="#023047" stroke-width="2" stroke-miterlimit="10" stroke-linecap="round" stroke-linejoin="round"/>
<path d="M38.2266 22.4249L39.9664 20.6851" stroke="#023047" stroke-width="2" stroke-miterlimit="10" stroke-linecap="round" stroke-linejoin="round"/>
<path d="M38.2266 18.8623L39.9664 20.6849" stroke="#023047" stroke-width="2" stroke-miterlimit="10" stroke-linecap="round" stroke-linejoin="round"/>
<path d="M6.40381 22.5889L1.10156 22.6717" stroke="#023047" stroke-width="2" stroke-miterlimit="10" stroke-linecap="round" stroke-linejoin="round"/>
<path d="M2.84136 20.8496L1.10156 22.6723" stroke="#023047" stroke-width="2" stroke-miterlimit="10" stroke-linecap="round" stroke-linejoin="round"/>
<path d="M2.92421 24.4121L1.10156 22.6724" stroke="#023047" stroke-width="2" stroke-miterlimit="10" stroke-linecap="round" stroke-linejoin="round"/>
<path d="M9.81099 11.9012L6 8.25586" stroke="#023047" stroke-width="2" stroke-miterlimit="10" stroke-linecap="round" stroke-linejoin="round"/>
<path d="M8.48543 8.17285L6 8.25568" stroke="#023047" stroke-width="2" stroke-miterlimit="10" stroke-linecap="round" stroke-linejoin="round"/>
<path d="M6 10.7408V8.25537" stroke="#023047" stroke-width="2" stroke-miterlimit="10" stroke-linecap="round" stroke-linejoin="round"/>
</svg>
