<svg width="42" height="39" viewBox="0 0 42 39" fill="none" xmlns="http://www.w3.org/2000/svg">
<path d="M40.0616 29.3021V24.8796L37.3328 25.1619C37.1446 24.5032 36.8623 23.9386 36.58 23.374L38.7442 21.5861L35.639 18.4809L33.8512 20.6452C33.2866 20.3629 32.722 20.0806 32.0633 19.9865L32.3456 17.1636H27.923L28.2053 20.0806C27.6407 20.2688 27.0761 20.457 26.5116 20.8334L24.6296 18.575L21.5244 21.6803L23.7827 23.5622C23.5004 24.1268 23.2181 24.5973 23.1241 25.256L20.207 24.9737V29.3962L23.1241 29.1139C23.3122 29.6785 23.5004 30.2431 23.7827 30.8077L21.5244 32.6896L24.6296 35.7949L26.5116 33.6306C27.0761 33.9129 27.6407 34.1952 28.2053 34.3834L27.923 37.2063H32.3456L32.0633 34.3834C32.722 34.1952 33.2866 34.007 33.8512 33.7247L35.639 35.889L38.7442 32.7838L36.58 30.9959C36.8623 30.4313 37.1446 29.8667 37.3328 29.208L40.0616 29.3021Z" stroke="#023047" stroke-width="2" stroke-miterlimit="10" stroke-linecap="round" stroke-linejoin="round"/>
<path d="M30.1784 29.9608C31.7374 29.9608 33.0013 28.6969 33.0013 27.1379C33.0013 25.5788 31.7374 24.3149 30.1784 24.3149C28.6193 24.3149 27.3555 25.5788 27.3555 27.1379C27.3555 28.6969 28.6193 29.9608 30.1784 29.9608Z" stroke="#023047" stroke-width="2" stroke-miterlimit="10" stroke-linecap="round" stroke-linejoin="round"/>
<path d="M23.3047 5.87274L25.4689 8.13107L29.8915 3.7085" stroke="#023047" stroke-width="2" stroke-miterlimit="10" stroke-linecap="round" stroke-linejoin="round"/>
<path d="M29.4268 9.16576C28.4858 10.6713 26.792 11.7064 24.9101 11.7064C21.9931 11.7064 19.6406 9.35396 19.6406 6.43694C19.6406 3.51992 21.9931 1.16748 24.9101 1.16748C25.8511 1.16748 26.6979 1.35567 27.4507 1.82616" stroke="#023047" stroke-width="2" stroke-miterlimit="10" stroke-linecap="round" stroke-linejoin="round"/>
<path d="M9.19463 28.6442V36.7366C9.19463 37.3011 8.72414 37.8657 8.06546 37.8657C6.4658 37.8657 5.14844 36.5484 5.14844 34.9487V18.2935" stroke="#023047" stroke-width="2" stroke-miterlimit="10" stroke-linecap="round" stroke-linejoin="round"/>
<path d="M9.19531 28.6442V36.7366C9.19531 37.3011 9.6658 37.8657 10.3245 37.8657C11.9241 37.8657 13.2415 36.5484 13.2415 34.9487V18.2935" stroke="#023047" stroke-width="2" stroke-miterlimit="10" stroke-linecap="round" stroke-linejoin="round"/>
<path d="M5.1474 25.1624C5.1474 26.2915 4.30053 27.1384 3.17136 27.1384C2.04219 27.1384 1.19531 26.2915 1.19531 25.1624V16.8818C1.19531 14.7175 2.98316 12.9297 5.1474 12.9297H13.1457C15.3099 12.9297 17.0978 14.7175 17.0978 16.8818V25.1624C17.0978 26.2915 16.2509 27.1384 15.1217 27.1384C13.9926 27.1384 13.1457 26.2915 13.1457 25.1624" stroke="#023047" stroke-width="2" stroke-miterlimit="10" stroke-linecap="round" stroke-linejoin="round"/>
<path d="M9.19463 10.483C11.4293 10.483 13.2408 8.67147 13.2408 6.43682C13.2408 4.20217 11.4293 2.39062 9.19463 2.39062C6.95998 2.39062 5.14844 4.20217 5.14844 6.43682C5.14844 8.67147 6.95998 10.483 9.19463 10.483Z" stroke="#023047" stroke-width="2" stroke-miterlimit="10" stroke-linecap="round" stroke-linejoin="round"/>
</svg>
