<svg width="20814" height="5000" viewBox="0 0 20814 5000" fill="none" xmlns="http://www.w3.org/2000/svg">
<path d="M6506.79 2662.21H6005.81V3525H5723.09V1392.19H6429.15C6669.38 1392.19 6853.95 1446.88 6982.86 1556.25C7112.74 1665.62 7177.68 1824.8 7177.68 2033.79C7177.68 2166.6 7141.55 2282.32 7069.29 2380.96C6998 2479.59 6898.39 2553.32 6770.46 2602.15L7271.43 3507.42V3525H6969.68L6506.79 2662.21ZM6005.81 2432.23H6437.94C6577.59 2432.23 6688.43 2396.09 6770.46 2323.83C6853.46 2251.56 6894.97 2154.88 6894.97 2033.79C6894.97 1901.95 6855.42 1800.88 6776.32 1730.57C6698.19 1660.25 6584.91 1624.61 6436.47 1623.63H6005.81V2432.23ZM8188.43 3554.3C7973.58 3554.3 7798.78 3483.98 7664.01 3343.36C7529.25 3201.76 7461.86 3012.79 7461.86 2776.46V2726.66C7461.86 2569.43 7491.65 2429.3 7551.22 2306.25C7611.77 2182.23 7695.75 2085.55 7803.17 2016.21C7911.57 1945.9 8028.76 1910.74 8154.73 1910.74C8360.79 1910.74 8520.95 1978.61 8635.2 2114.36C8749.46 2250.1 8806.59 2444.43 8806.59 2697.36V2810.16H7732.86C7736.77 2966.41 7782.18 3092.87 7869.09 3189.55C7956.98 3285.25 8068.31 3333.11 8203.07 3333.11C8298.78 3333.11 8379.83 3313.57 8446.24 3274.51C8512.64 3235.45 8570.75 3183.69 8620.55 3119.24L8786.08 3248.14C8653.27 3452.25 8454.05 3554.3 8188.43 3554.3ZM8154.73 2133.4C8045.36 2133.4 7953.56 2173.44 7879.34 2253.52C7805.12 2332.62 7759.23 2443.95 7741.65 2587.5H8535.59V2566.99C8527.78 2429.3 8490.67 2322.85 8424.27 2247.66C8357.86 2171.48 8268.02 2133.4 8154.73 2133.4ZM10044.4 3104.59C10044.4 3031.35 10016.6 2974.71 9960.89 2934.67C9906.2 2893.65 9810.01 2858.5 9672.31 2829.2C9535.59 2799.9 9426.71 2764.75 9345.65 2723.73C9265.57 2682.71 9206 2633.89 9166.94 2577.25C9128.86 2520.61 9109.81 2453.22 9109.81 2375.1C9109.81 2245.21 9164.5 2135.35 9273.88 2045.51C9384.23 1955.66 9524.85 1910.74 9695.75 1910.74C9875.44 1910.74 10020.9 1957.13 10132.3 2049.9C10244.6 2142.68 10300.7 2261.33 10300.7 2405.86H10028.3C10028.3 2331.64 9996.53 2267.68 9933.05 2213.96C9870.55 2160.25 9791.45 2133.4 9695.75 2133.4C9597.12 2133.4 9519.97 2154.88 9464.3 2197.85C9408.64 2240.82 9380.81 2296.97 9380.81 2366.31C9380.81 2431.74 9406.69 2481.05 9458.45 2514.26C9510.2 2547.46 9603.46 2579.2 9738.23 2609.47C9873.97 2639.75 9983.84 2675.88 10067.8 2717.87C10151.8 2759.86 10213.8 2810.64 10253.9 2870.21C10294.9 2928.81 10315.4 3000.59 10315.4 3085.55C10315.4 3227.15 10258.7 3340.92 10145.5 3426.86C10032.2 3511.82 9885.2 3554.3 9704.54 3554.3C9577.59 3554.3 9465.28 3531.84 9367.62 3486.91C9269.97 3441.99 9193.31 3379.49 9137.64 3299.41C9082.96 3218.36 9055.61 3130.96 9055.61 3037.21H9326.61C9331.49 3128.03 9367.62 3200.29 9435.01 3254C9503.37 3306.74 9593.21 3333.11 9704.54 3333.11C9807.08 3333.11 9889.11 3312.6 9950.63 3271.58C10013.1 3229.59 10044.4 3173.93 10044.4 3104.59ZM12007.3 2750.1C12007.3 2991.31 11952.1 3185.64 11841.7 3333.11C11731.4 3480.57 11582 3554.3 11393.5 3554.3C11201.1 3554.3 11049.8 3493.26 10939.4 3371.19V4134.38H10668.4V1940.04H10916L10929.1 2115.82C11039.5 1979.1 11192.8 1910.74 11389.1 1910.74C11579.5 1910.74 11729.9 1982.52 11840.3 2126.07C11951.6 2269.63 12007.3 2469.34 12007.3 2725.2V2750.1ZM11736.3 2719.34C11736.3 2540.62 11698.2 2399.51 11622 2296C11545.8 2192.48 11441.4 2140.72 11308.5 2140.72C11144.5 2140.72 11021.4 2213.48 10939.4 2358.98V3116.31C11020.5 3260.84 11144.5 3333.11 11311.5 3333.11C11441.4 3333.11 11544.4 3281.84 11620.6 3179.3C11697.7 3075.78 11736.3 2922.46 11736.3 2719.34ZM12281.2 2717.87C12281.2 2562.6 12311.5 2422.95 12372 2298.93C12433.5 2174.9 12518.5 2079.2 12626.9 2011.82C12736.3 1944.43 12860.8 1910.74 13000.4 1910.74C13216.3 1910.74 13390.6 1985.45 13523.4 2134.86C13657.2 2284.28 13724.1 2483.01 13724.1 2731.05V2750.1C13724.1 2904.39 13694.3 3043.07 13634.7 3166.11C13576.1 3288.18 13491.6 3383.4 13381.3 3451.76C13271.9 3520.12 13145.9 3554.3 13003.4 3554.3C12788.5 3554.3 12614.2 3479.59 12480.4 3330.18C12347.6 3180.76 12281.2 2983.01 12281.2 2736.91V2717.87ZM12553.7 2750.1C12553.7 2925.88 12594.2 3066.99 12675.2 3173.44C12757.3 3279.88 12866.6 3333.11 13003.4 3333.11C13141.1 3333.11 13250.4 3279.39 13331.5 3171.97C13412.5 3063.57 13453.1 2912.21 13453.1 2717.87C13453.1 2544.04 13411.6 2403.42 13328.6 2296C13246.5 2187.6 13137.2 2133.4 13000.4 2133.4C12866.6 2133.4 12758.7 2186.62 12676.7 2293.07C12594.7 2399.51 12553.7 2551.86 12553.7 2750.1ZM14320.3 1940.04L14329.1 2139.26C14450.1 1986.91 14608.3 1910.74 14803.7 1910.74C15138.6 1910.74 15307.6 2099.71 15310.5 2477.64V3525H15039.5V2476.17C15038.5 2361.91 15012.2 2277.44 14960.4 2222.75C14909.6 2168.07 14830 2140.72 14721.6 2140.72C14633.7 2140.72 14556.6 2164.16 14490.2 2211.04C14423.8 2257.91 14372 2319.43 14334.9 2395.61V3525H14063.9V1940.04H14320.3ZM16642 3104.59C16642 3031.35 16614.2 2974.71 16558.5 2934.67C16503.9 2893.65 16407.7 2858.5 16270 2829.2C16133.2 2799.9 16024.4 2764.75 15943.3 2723.73C15863.2 2682.71 15803.7 2633.89 15764.6 2577.25C15726.5 2520.61 15707.5 2453.22 15707.5 2375.1C15707.5 2245.21 15762.2 2135.35 15871.5 2045.51C15981.9 1955.66 16122.5 1910.74 16293.4 1910.74C16473.1 1910.74 16618.6 1957.13 16729.9 2049.9C16842.2 2142.68 16898.4 2261.33 16898.4 2405.86H16625.9C16625.9 2331.64 16594.2 2267.68 16530.7 2213.96C16468.2 2160.25 16389.1 2133.4 16293.4 2133.4C16194.8 2133.4 16117.6 2154.88 16062 2197.85C16006.3 2240.82 15978.5 2296.97 15978.5 2366.31C15978.5 2431.74 16004.3 2481.05 16056.1 2514.26C16107.9 2547.46 16201.1 2579.2 16335.9 2609.47C16471.6 2639.75 16581.5 2675.88 16665.5 2717.87C16749.5 2759.86 16811.5 2810.64 16851.5 2870.21C16892.5 2928.81 16913 3000.59 16913 3085.55C16913 3227.15 16856.4 3340.92 16743.1 3426.86C16629.8 3511.82 16482.9 3554.3 16302.2 3554.3C16175.2 3554.3 16062.9 3531.84 15965.3 3486.91C15867.6 3441.99 15791 3379.49 15735.3 3299.41C15680.6 3218.36 15653.3 3130.96 15653.3 3037.21H15924.3C15929.1 3128.03 15965.3 3200.29 16032.7 3254C16101 3306.74 16190.9 3333.11 16302.2 3333.11C16404.7 3333.11 16486.8 3312.6 16548.3 3271.58C16610.8 3229.59 16642 3173.93 16642 3104.59ZM17560.5 3525H17289.5V1940.04H17560.5V3525ZM17267.5 1519.63C17267.5 1475.68 17280.7 1438.57 17307.1 1408.3C17334.4 1378.03 17374.5 1362.89 17427.2 1362.89C17479.9 1362.89 17520 1378.03 17547.3 1408.3C17574.7 1438.57 17588.3 1475.68 17588.3 1519.63C17588.3 1563.57 17574.7 1600.2 17547.3 1629.49C17520 1658.79 17479.9 1673.44 17427.2 1673.44C17374.5 1673.44 17334.4 1658.79 17307.1 1629.49C17280.7 1600.2 17267.5 1563.57 17267.5 1519.63ZM18518.5 3157.32L18911.1 1940.04H19187.9L18619.6 3525H18413L17838.8 1940.04H18115.7L18518.5 3157.32ZM20085.9 3554.3C19871 3554.3 19696.2 3483.98 19561.5 3343.36C19426.7 3201.76 19359.3 3012.79 19359.3 2776.46V2726.66C19359.3 2569.43 19389.1 2429.3 19448.7 2306.25C19509.2 2182.23 19593.2 2085.55 19700.6 2016.21C19809 1945.9 19926.2 1910.74 20052.2 1910.74C20258.2 1910.74 20418.4 1978.61 20532.7 2114.36C20646.9 2250.1 20704.1 2444.43 20704.1 2697.36V2810.16H19630.3C19634.2 2966.41 19679.6 3092.87 19766.6 3189.55C19854.4 3285.25 19965.8 3333.11 20100.5 3333.11C20196.2 3333.11 20277.3 3313.57 20343.7 3274.51C20410.1 3235.45 20468.2 3183.69 20518 3119.24L20683.5 3248.14C20550.7 3452.25 20351.5 3554.3 20085.9 3554.3ZM20052.2 2133.4C19942.8 2133.4 19851 2173.44 19776.8 2253.52C19702.6 2332.62 19656.7 2443.95 19639.1 2587.5H20433.1V2566.99C20425.2 2429.3 20388.1 2322.85 20321.7 2247.66C20255.3 2171.48 20165.5 2133.4 20052.2 2133.4Z" fill="#2A9D8F"/>
<circle cx="2500" cy="2500" r="2500" fill="#2A9D8F"/>
<path fill-rule="evenodd" clip-rule="evenodd" d="M2610 996.708C2610 944.364 2569.44 900.636 2517.1 900.088C2511.41 900.029 2505.71 899.999 2500 899.999C1616.34 899.999 900 1616.34 900 2500C900 3383.65 1616.34 4100 2500 4100C3383.66 4100 4100 3383.65 4100 2500C4100 2494.29 4099.97 2488.59 4099.91 2482.9C4099.36 2430.56 4055.64 2390 4003.29 2390V2390C3945.29 2390 3899.89 2439.44 3900 2497.44C3900 2498.29 3900 2499.15 3900 2500C3900 3273.2 3273.2 3900 2500 3900C1726.8 3900 1100 3273.2 1100 2500C1100 1726.8 1726.8 1100 2500 1100C2500.85 1100 2501.71 1100 2502.56 1100C2560.56 1100.11 2610 1054.71 2610 996.708V996.708Z" fill="white"/>
<path d="M2500 2500.21L3914.21 1086" stroke="white" stroke-width="200" stroke-linecap="round" stroke-linejoin="round"/>
<path d="M3184 1005.91H3984" stroke="white" stroke-width="200" stroke-linecap="round" stroke-linejoin="round"/>
<path d="M3984 1005.91L3984 1805.91" stroke="white" stroke-width="200" stroke-linecap="round" stroke-linejoin="round"/>
</svg>
