<svg width="5000" height="5000" viewBox="0 0 5000 5000" fill="none" xmlns="http://www.w3.org/2000/svg">
<circle cx="2500" cy="2500" r="2500" fill="#2A9D8F"/>
<path fill-rule="evenodd" clip-rule="evenodd" d="M2610 996.709C2610 944.365 2569.44 900.637 2517.1 900.089C2511.41 900.03 2505.71 900 2500 900C1616.34 900 900 1616.34 900 2500C900 3383.66 1616.34 4100 2500 4100C3383.66 4100 4100 3383.66 4100 2500C4100 2494.29 4099.97 2488.59 4099.91 2482.9C4099.36 2430.56 4055.64 2390 4003.29 2390C3945.29 2390 3899.89 2439.44 3900 2497.44C3900 2498.29 3900 2499.15 3900 2500C3900 3273.2 3273.2 3900 2500 3900C1726.8 3900 1100 3273.2 1100 2500C1100 1726.8 1726.8 1100 2500 1100C2500.85 1100 2501.71 1100 2502.56 1100C2560.56 1100.11 2610 1054.71 2610 996.709Z" fill="white"/>
<path d="M2500 2500.21L3914.21 1086" stroke="white" stroke-width="200" stroke-linecap="round" stroke-linejoin="round"/>
<path d="M3184 1005.91H3984" stroke="white" stroke-width="200" stroke-linecap="round" stroke-linejoin="round"/>
<path d="M3984 1005.91L3984 1805.91" stroke="white" stroke-width="200" stroke-linecap="round" stroke-linejoin="round"/>
</svg>
